<mxfile host="app.diagrams.net" modified="2024-05-14T04:08:13.352Z" agent="Mozilla/5.0 (Macintosh; Intel Mac OS X 10_15_7) AppleWebKit/537.36 (KHTML, like Gecko) Chrome/124.0.0.0 Safari/537.36" etag="14mBdNz74GSLvJ75AkGa" version="24.4.0" type="github">
  <diagram name="第 1 页" id="0kq8UOiedJtzS0gR8iW6">
    <mxGraphModel dx="934" dy="488" grid="1" gridSize="10" guides="1" tooltips="1" connect="1" arrows="1" fold="1" page="1" pageScale="1" pageWidth="827" pageHeight="1169" math="0" shadow="0">
      <root>
        <mxCell id="0" />
        <mxCell id="1" parent="0" />
        <mxCell id="VAt3fNBsJgaOTjMqSgV4-10" style="edgeStyle=orthogonalEdgeStyle;rounded=0;orthogonalLoop=1;jettySize=auto;html=1;curved=1;" edge="1" parent="1" source="VAt3fNBsJgaOTjMqSgV4-4" target="VAt3fNBsJgaOTjMqSgV4-5">
          <mxGeometry relative="1" as="geometry" />
        </mxCell>
        <mxCell id="VAt3fNBsJgaOTjMqSgV4-4" value="做不喜欢的事情" style="rounded=1;whiteSpace=wrap;html=1;" vertex="1" parent="1">
          <mxGeometry x="280" y="40" width="120" height="40" as="geometry" />
        </mxCell>
        <mxCell id="VAt3fNBsJgaOTjMqSgV4-11" style="edgeStyle=orthogonalEdgeStyle;curved=1;rounded=0;orthogonalLoop=1;jettySize=auto;html=1;strokeColor=default;align=center;verticalAlign=middle;fontFamily=Helvetica;fontSize=11;fontColor=default;labelBackgroundColor=default;endArrow=classic;" edge="1" parent="1" source="VAt3fNBsJgaOTjMqSgV4-5" target="VAt3fNBsJgaOTjMqSgV4-6">
          <mxGeometry relative="1" as="geometry" />
        </mxCell>
        <mxCell id="VAt3fNBsJgaOTjMqSgV4-5" value="对生活没有激情" style="rounded=1;whiteSpace=wrap;html=1;" vertex="1" parent="1">
          <mxGeometry x="440" y="120" width="120" height="40" as="geometry" />
        </mxCell>
        <mxCell id="VAt3fNBsJgaOTjMqSgV4-16" style="edgeStyle=orthogonalEdgeStyle;curved=1;rounded=0;orthogonalLoop=1;jettySize=auto;html=1;entryX=1;entryY=0.5;entryDx=0;entryDy=0;strokeColor=default;align=center;verticalAlign=middle;fontFamily=Helvetica;fontSize=11;fontColor=default;labelBackgroundColor=default;endArrow=classic;" edge="1" parent="1" source="VAt3fNBsJgaOTjMqSgV4-6" target="VAt3fNBsJgaOTjMqSgV4-7">
          <mxGeometry relative="1" as="geometry">
            <Array as="points">
              <mxPoint x="500" y="300" />
            </Array>
          </mxGeometry>
        </mxCell>
        <mxCell id="VAt3fNBsJgaOTjMqSgV4-6" value="感觉不快乐" style="rounded=1;whiteSpace=wrap;html=1;" vertex="1" parent="1">
          <mxGeometry x="440" y="200" width="120" height="40" as="geometry" />
        </mxCell>
        <mxCell id="VAt3fNBsJgaOTjMqSgV4-13" style="edgeStyle=orthogonalEdgeStyle;curved=1;rounded=0;orthogonalLoop=1;jettySize=auto;html=1;entryX=0.5;entryY=1;entryDx=0;entryDy=0;strokeColor=default;align=center;verticalAlign=middle;fontFamily=Helvetica;fontSize=11;fontColor=default;labelBackgroundColor=default;endArrow=classic;" edge="1" parent="1" source="VAt3fNBsJgaOTjMqSgV4-7" target="VAt3fNBsJgaOTjMqSgV4-8">
          <mxGeometry relative="1" as="geometry" />
        </mxCell>
        <mxCell id="VAt3fNBsJgaOTjMqSgV4-7" value="把闲暇时间用在&lt;br&gt;娱乐和消遣" style="rounded=1;whiteSpace=wrap;html=1;" vertex="1" parent="1">
          <mxGeometry x="280" y="280" width="120" height="40" as="geometry" />
        </mxCell>
        <mxCell id="VAt3fNBsJgaOTjMqSgV4-14" style="edgeStyle=orthogonalEdgeStyle;curved=1;rounded=0;orthogonalLoop=1;jettySize=auto;html=1;entryX=0.5;entryY=1;entryDx=0;entryDy=0;strokeColor=default;align=center;verticalAlign=middle;fontFamily=Helvetica;fontSize=11;fontColor=default;labelBackgroundColor=default;endArrow=classic;" edge="1" parent="1" source="VAt3fNBsJgaOTjMqSgV4-8" target="VAt3fNBsJgaOTjMqSgV4-9">
          <mxGeometry relative="1" as="geometry" />
        </mxCell>
        <mxCell id="VAt3fNBsJgaOTjMqSgV4-8" value="时间都用来&lt;br&gt;消磨和打发了" style="rounded=1;whiteSpace=wrap;html=1;" vertex="1" parent="1">
          <mxGeometry x="120" y="200" width="120" height="40" as="geometry" />
        </mxCell>
        <mxCell id="VAt3fNBsJgaOTjMqSgV4-15" style="edgeStyle=orthogonalEdgeStyle;curved=1;rounded=0;orthogonalLoop=1;jettySize=auto;html=1;entryX=0;entryY=0.5;entryDx=0;entryDy=0;strokeColor=default;align=center;verticalAlign=middle;fontFamily=Helvetica;fontSize=11;fontColor=default;labelBackgroundColor=default;endArrow=classic;" edge="1" parent="1" source="VAt3fNBsJgaOTjMqSgV4-9" target="VAt3fNBsJgaOTjMqSgV4-4">
          <mxGeometry relative="1" as="geometry">
            <Array as="points">
              <mxPoint x="180" y="60" />
            </Array>
          </mxGeometry>
        </mxCell>
        <mxCell id="VAt3fNBsJgaOTjMqSgV4-9" value="没有时间去&lt;br&gt;尝试新的事情" style="rounded=1;whiteSpace=wrap;html=1;" vertex="1" parent="1">
          <mxGeometry x="120" y="120" width="120" height="40" as="geometry" />
        </mxCell>
      </root>
    </mxGraphModel>
  </diagram>
</mxfile>
